<svg width="53" height="53" viewBox="0 0 53 53" fill="none" xmlns="http://www.w3.org/2000/svg">
<g clip-path="url(#clip0)">
<path d="M16.166 17.2653C17.1403 18.3006 18.6017 18.4223 19.8196 17.7524C21.2482 16.4669 24.0221 15.4081 26.4571 15.4081C28.2535 15.4081 29.9586 15.8647 31.4504 16.6563C31.4504 16.2558 31.9805 14.7254 33.1249 13.5812C33.8557 12.881 34.7385 12.3634 35.7128 12.0893C34.3483 11.1952 32.8345 10.4965 31.2247 10.02C32.04 8.98419 32.5464 7.59286 32.5464 6.17251C32.5464 2.80935 29.8201 0.0831299 26.4571 0.0831299C23.094 0.0831299 20.3677 2.80935 20.3677 6.17251C20.3677 7.59398 20.8748 8.98622 21.6912 10.0224C19.6087 10.6559 17.9195 11.4667 16.2877 12.8809C14.9246 14.1257 15.0385 16.1379 16.166 17.2653Z" fill="#373759"/>
<path d="M10.4149 30.8303C11.1564 33.2675 12.0789 34.8556 13.2734 36.2336C14.5236 37.6028 16.5368 37.4763 17.6578 36.3555C18.6931 35.3812 18.8147 33.9197 18.145 32.7019C16.7318 31.1315 15.8006 28.2749 15.8006 26.1252C15.908 25.2876 15.7147 23.5651 17.0488 21.1016C16.2467 20.8337 15.2535 20.6765 13.9739 19.3966C13.2735 18.6658 12.7559 17.7828 12.4818 16.8085C11.5878 18.173 10.8892 19.6868 10.4127 21.2968C9.37691 20.4815 8.08707 19.9751 6.66652 19.9751C3.30346 19.9751 0.475647 22.7013 0.475647 26.0644C0.475647 29.4275 3.30346 32.1538 6.66652 32.1538C8.08799 32.1538 9.37873 31.6467 10.4149 30.8303Z" fill="#373759"/>
<path d="M31.2228 42.1066C33.823 41.3155 35.384 40.3244 36.6264 39.2479C37.9928 38.0004 37.8718 35.9873 36.7481 34.8638C35.7432 33.8285 34.2514 33.7068 33.0334 34.407C31.3052 35.4946 29.832 36.7209 26.5179 36.7209C24.7071 36.7209 23.0159 36.2961 21.4636 35.4725C21.4636 35.8728 20.9334 37.4034 19.789 38.5476C19.0583 39.2478 18.1754 39.7656 17.2011 40.0396C18.5656 40.9336 20.0797 41.6323 21.6894 42.1088C20.874 43.1446 20.3676 44.4345 20.3676 45.855C20.3676 49.2181 23.0939 52.0459 26.457 52.0459C29.8201 52.0459 32.5464 49.2181 32.5464 45.855C32.5464 44.4336 32.0392 43.1428 31.2228 42.1066Z" fill="#373759"/>
<path d="M46.2476 19.9751C44.8261 19.9751 43.5354 20.4822 42.4991 21.2986C41.8989 19.3254 40.9963 17.4596 39.6407 15.8951C38.3925 14.5281 36.3798 14.6498 35.2563 15.7734C34.221 16.7477 34.0993 18.2091 34.7691 19.427C36.1835 20.9979 37.1135 23.8729 37.1135 26.0034V26.0644C37.1135 27.8607 36.6567 29.5354 35.8348 31.0273C36.9918 31.2708 38.0879 31.8492 38.9403 32.7323C39.6407 33.463 40.1583 34.3459 40.4324 35.3202C41.3264 33.9557 42.025 32.4416 42.5015 30.8319C43.5372 31.6474 44.827 32.1538 46.2476 32.1538C49.6106 32.1538 52.4384 29.4275 52.4384 26.0644C52.4384 22.7013 49.6106 19.9751 46.2476 19.9751Z" fill="#373759"/>
</g>
<defs>
<clipPath id="clip0">
<rect width="51.9627" height="51.9627" fill="white" transform="translate(0.475647 0.0831299)"/>
</clipPath>
</defs>
</svg>
