<svg width="53" height="53" viewBox="0 0 53 53" fill="none" xmlns="http://www.w3.org/2000/svg">
<g clip-path="url(#clip0)">
<path d="M26.0645 7.94006C21.1303 9.25446 16.5277 10.9205 12.3634 12.8989V23.0074C12.3634 25.8612 12.93 28.6455 14.0489 31.3017C16.9137 30.6447 20.4272 30.0506 26.0645 30.0506C31.701 30.0506 35.2145 30.6445 38.0791 31.3015C39.1979 28.648 39.7656 25.8659 39.7656 23.0073L39.7657 12.8989C35.6012 10.9204 30.9985 9.25436 26.0645 7.94006ZM32.2553 27.0059H20.0766V13.3048H23.1213V15.8421H29.2107V13.3048H32.2553V27.0059Z" fill="#373759"/>
<path d="M26.0646 39.1847C23.5342 39.1847 21.5598 39.3157 19.8893 39.5247C21.7011 41.1943 23.7669 42.6107 26.0646 43.7521C28.3585 42.6121 30.4262 41.1957 32.2402 39.5247C30.5696 39.3157 28.5951 39.1847 26.0646 39.1847Z" fill="#373759"/>
<path d="M46.5827 7.82984C40.6542 4.60399 33.8746 2.02838 26.4324 0.174775L26.0645 0.0831299L25.6966 0.174775C18.2543 2.02849 11.4748 4.60389 5.54638 7.82964L4.75162 8.26209V23.0073C4.75162 26.4175 5.35426 29.737 6.48557 32.8628C6.48699 32.8666 6.48953 32.8704 6.49135 32.8743C6.48993 32.8703 6.48831 32.8663 6.48689 32.8624C8.27757 32.6678 9.66494 32.3684 11.0587 32.0299C9.90445 29.1355 9.31866 26.1091 9.31866 23.0073V10.9969L10.1684 10.5784C14.8434 8.27599 20.0619 6.36311 25.6789 4.89273L26.0645 4.79185L26.45 4.89273C32.0669 6.36311 37.2855 8.27599 41.9606 10.5784L42.8104 10.9969L42.8103 23.0073C42.8103 26.1142 42.2246 29.1387 41.0707 32.03C42.4643 32.3684 43.8517 32.6679 45.642 32.8624C45.6389 32.8711 45.6354 32.8796 45.6322 32.8884C45.6357 32.8798 45.6402 32.8713 45.6432 32.8628C46.7747 29.737 47.3773 26.4176 47.3773 23.0073L47.3775 8.26229L46.5827 7.82984Z" fill="#373759"/>
<path d="M29.2106 18.8871H23.1213V23.9616H29.2106V18.8871Z" fill="#373759"/>
<path d="M40.8965 41.3558C39.8386 41.1379 38.8772 40.8987 37.9263 40.662C37.2529 40.4943 36.5877 40.3288 35.8963 40.1725C33.3433 42.9311 30.255 45.1679 26.7077 46.8213L26.0644 47.1211L25.4213 46.8213C21.8672 45.1647 18.7811 42.9297 16.232 40.1726C15.5409 40.3288 14.8759 40.4943 14.2027 40.6619C13.2517 40.8986 12.2904 41.1378 11.2325 41.3557C14.79 45.8668 19.6702 49.5259 25.5063 51.826L26.0644 52.0459L26.6226 51.826C32.4585 49.526 37.3386 45.867 40.8974 41.3565C40.9004 41.3526 40.9021 41.3488 40.9047 41.345C40.9019 41.3486 40.8992 41.3522 40.8965 41.3558Z" fill="#373759"/>
<path d="M39.3973 34.753C36.2765 33.976 32.7394 33.0953 26.0645 33.0953C19.3896 33.0953 15.8525 33.976 12.7317 34.753C11.1203 35.1542 9.6271 35.5257 7.72316 35.7832C7.72234 35.7815 7.72153 35.7796 7.72062 35.7779C7.72153 35.7798 7.72204 35.7817 7.72295 35.7836C8.19691 36.755 8.72405 37.7024 9.30183 38.6225C9.30619 38.6294 9.31188 38.6363 9.31675 38.6432C9.31218 38.6359 9.30731 38.6288 9.30274 38.6214C10.8365 38.3621 12.136 38.0389 13.4672 37.7075C16.5624 36.9369 19.7631 36.1401 26.0645 36.1401C32.3659 36.1401 35.5666 36.937 38.6618 37.7075C39.9929 38.0389 41.2925 38.3621 42.8262 38.6214C42.8203 38.6309 42.814 38.64 42.8082 38.6495C42.8146 38.6403 42.8217 38.6313 42.8273 38.6222C43.4051 37.7021 43.9322 36.7545 44.4069 35.7808C42.5019 35.5258 41.0086 35.1542 39.3973 34.753Z" fill="#373759"/>
</g>
<defs>
<clipPath id="clip0">
<rect width="51.9627" height="51.9627" fill="white" transform="translate(0.0830917 0.0831299)"/>
</clipPath>
</defs>
</svg>
