<svg width="55" height="55" viewBox="0 0 55 55" fill="none" xmlns="http://www.w3.org/2000/svg">
<g clip-path="url(#clip0)">
<path d="M31.3039 16.2556C30.2577 16.44 29.2589 15.7407 29.0744 14.6945L28.5731 11.8515L20.9919 13.1883L21.4932 16.0312C21.6777 17.0774 20.9783 18.0763 19.9321 18.2607C18.8859 18.4452 17.8871 17.7458 17.7026 16.6996L17.2013 13.8567C16.8327 11.7661 18.233 9.76627 20.3235 9.39765L27.9047 8.06088C29.9953 7.69226 31.9951 9.09258 32.3637 11.1831L32.865 14.0261C33.0495 15.0723 32.3501 16.0711 31.3039 16.2556Z" fill="#373759"/>
<path d="M29.9313 33.8513C29.6135 34.0441 29.1374 34.2258 28.6257 34.316C28.114 34.4062 27.6045 34.3984 27.1195 34.308L4.58533 30.9725L7.13523 45.4337C7.6432 48.3146 10.3855 50.2348 13.2664 49.7268L48.3296 43.5442C51.2104 43.0362 53.1306 40.2939 52.6226 37.4131L50.0727 22.9519L29.9313 33.8513Z" fill="#373759"/>
<path d="M48.7794 15.617L49.5447 19.9572L28.5659 31.317C28.4243 31.4006 28.2761 31.4462 28.1244 31.473C27.9728 31.4997 27.8178 31.5075 27.6562 31.4774L4.05732 27.9779L3.29202 23.6376C2.78404 20.7568 4.70421 18.0145 7.58508 17.5065L42.6483 11.3239C45.5292 10.8159 48.2714 12.7361 48.7794 15.617Z" fill="#373759"/>
</g>
<defs>
<clipPath id="clip0">
<rect width="46.1891" height="46.1891" fill="white" transform="translate(0.702026 8.94897) rotate(-10)"/>
</clipPath>
</defs>
</svg>
