<svg width="31" height="53" viewBox="0 0 31 53" fill="none" xmlns="http://www.w3.org/2000/svg">
<g clip-path="url(#clip0)">
<path d="M3.07668 44.6542C2.51371 44.9472 1.72824 45.2018 1.4417 45.3496C1.15516 45.4974 0.946151 45.633 0.936038 45.8356C0.925925 46.0381 0.855132 46.3379 1.47036 46.2928L1.53778 46.494L1.88837 46.4762L1.92208 46.3023L2.27099 46.3105L2.31481 46.4912C1.60616 46.8658 1.07585 47.4253 0.811349 48.0775C0.546843 48.7296 0.563936 49.4356 0.859807 50.0788C1.15568 50.722 1.71266 51.2642 2.43889 51.6158C3.16513 51.9674 4.01724 52.1076 4.85471 52.0131C5.69218 51.9186 6.46498 51.5951 7.04568 51.096C7.62637 50.5969 7.98028 49.952 8.04902 49.2676C8.11777 48.5833 7.89726 47.9003 7.42385 47.3314C6.95044 46.7625 6.2524 46.3415 5.44487 46.1381L5.54094 45.7438C5.54094 45.7438 6.32978 45.4222 7.75069 45.3592L7.73889 45.5878L8.24455 45.5604L8.21084 45.6795L8.64909 45.6056L8.66088 45.2032L8.88675 45.1758V45.3222L9.32667 45.2949L9.7548 45.3674V44.965C9.7548 44.965 10.1037 44.8555 9.98066 44.2148C9.85762 43.5742 9.31487 42.3915 8.90866 42.4353C8.90866 42.4353 8.15353 40.8516 7.99509 40.0275C7.83665 39.2035 7.64619 36.8792 7.49954 36.292C7.3529 35.7047 6.93657 34.4604 6.59778 33.865C6.25898 33.2695 6.01121 33.0437 6.13594 32.8301C6.26067 32.6166 8.4957 31.3477 8.4957 31.3477C8.4957 31.3477 11.2347 32.9397 11.5398 32.6933C11.8449 32.4469 14.2367 29.4245 14.2367 29.4245C14.2367 29.4245 15.2176 30.5195 15.2176 30.844C15.2176 31.1684 15.5446 32.4729 15.602 32.6563C15.6593 32.8397 15.9846 34.1483 16.2323 34.3414C16.4801 34.5344 17.4611 34.6617 17.4611 34.6617C17.4611 34.6617 17.5858 36.2824 18.2735 37.372C18.2735 37.372 17.7881 39.1118 17.9128 40.0275C18.0376 40.9433 18.1943 44.4585 18.1606 45.0074C18.1269 45.5563 18.0359 46.4734 18.0359 46.4734C18.0359 46.4734 17.5302 47.1045 17.4173 47.5357C17.3044 47.9669 17.2133 48.4788 17.3044 48.6157C17.3606 48.7005 17.4329 48.7776 17.5184 48.8443L17.6415 49.2289H17.9128L18.0696 49.0181H18.2499L18.1724 49.385C18.35 49.418 18.5313 49.4363 18.7135 49.4397C18.9968 49.4236 19.2804 49.4679 19.536 49.5684C19.7838 49.6875 19.9877 49.8422 19.9979 49.9065C20.008 49.9708 20.0552 50.1351 20.0552 50.1351H20.3366L20.3923 50.2829H20.7429L20.8103 50.1912L21.1373 50.246L21.1592 50.3281L21.6109 50.2734L21.6783 50.0434L22.6256 49.9982L22.6593 50.1077L22.9408 50.0803V49.8148C22.9408 49.8148 23.4819 49.5862 23.2223 49.1564C22.9627 48.7266 21.9042 48.3597 21.7458 48.1982C21.5873 48.0367 20.7766 46.7787 20.6636 46.7061L20.5507 46.6322C20.5507 46.6322 20.7766 46.4584 20.5962 46.3215C20.4159 46.1846 20.1681 46.3393 20.1681 46.3393L20.1563 45.5604C20.1563 45.5604 20.5962 45.4879 20.7985 44.8473C21.0007 44.2066 21.5772 42.0356 21.7913 41.1021C22.0053 40.1685 22.061 39.2802 21.8924 38.5109C21.7238 37.7416 21.589 37.8333 21.589 37.8333C21.589 37.8333 21.5098 35.8457 21.4862 35.5172C21.4626 35.1887 21.5317 34.4002 21.5317 34.4002L22.7841 34.0799L22.6155 26.0585C22.6155 26.0585 22.7621 24.346 22.6492 23.9436C22.5645 23.5815 22.5043 23.216 22.4689 22.8485C22.4689 22.8485 23.2914 23.1962 23.878 22.8937C24.4645 22.5912 26.0877 21.466 26.8445 20.9171C27.6013 20.3682 28.5452 19.3963 28.997 18.8926C29.4487 18.3888 30.1768 17.6291 30.3454 17.5237C30.4793 17.4141 30.5724 17.2761 30.6142 17.1256C30.6559 16.975 30.6445 16.8179 30.5814 16.6723C30.401 16.3328 28.7441 14.1632 28.7441 14.1632L28.8116 14.0263C28.8116 14.0263 26.9221 12.4508 26.3709 11.9114C25.8197 11.3721 23.8881 9.64874 23.7094 9.57619C23.5307 9.50364 20.372 8.48111 19.8647 8.32096C19.3573 8.1608 18.7607 7.99243 18.7607 7.99243L18.8837 7.03424C18.8837 7.03424 19.3894 6.67697 19.4922 5.90768C19.6948 5.79707 19.867 5.65351 19.9979 5.48608C20.1108 5.28486 20.0771 4.96455 20.1108 4.88242C20.1445 4.80028 20.426 4.41564 20.3704 4.3513C20.3147 4.28697 20.0552 4.32393 20.0552 4.32393C20.0552 4.32393 20.6636 3.12482 20.6181 2.5937C20.6065 2.44214 20.545 2.2959 20.44 2.17021C20.3351 2.04453 20.1905 1.94402 20.0214 1.87917C20.0214 1.87917 20.281 1.16463 19.9304 1.00858C19.6262 0.898058 19.3036 0.824272 18.973 0.789565C18.8144 0.559768 18.5789 0.371186 18.2937 0.245687C18.0085 0.120188 17.6853 0.0629132 17.3617 0.080503C16.1666 0.0996669 15.6761 0.529485 15.3205 0.675951C14.9648 0.822418 14.0125 1.55475 14.0024 1.78335C13.9923 2.01194 13.8439 2.51705 13.8338 2.74154C13.8237 2.96603 14.026 3.9954 14.026 3.9954C14.026 3.9954 13.7445 3.90369 13.6889 4.10491C13.6332 4.30613 13.8136 5.19999 14.0159 5.35056C14.1807 5.46757 14.3584 5.57204 14.5468 5.66266C14.6926 6.07332 14.7731 6.49747 14.7861 6.92473C14.7642 7.44626 14.7069 7.95 14.4592 8.08825C14.2114 8.22651 11.4656 8.99854 10.9347 9.21892C10.4037 9.4393 9.6267 9.51185 9.54917 9.8965C9.54917 9.8965 8.07094 10.9765 7.58719 11.5172C7.10344 12.0579 6.49327 12.6438 6.49327 12.6438C6.49327 12.6438 6.2337 12.5972 6.14268 12.6889C6.05166 12.7807 5.10607 13.5677 5.10607 13.5677L5.25272 13.8333C5.25272 13.8333 3.62954 15.7497 3.41547 16.1686C3.20141 16.5874 3.10028 16.853 3.40367 17.2636C3.70707 17.6743 4.99314 19.4155 5.44487 19.9548C5.89659 20.4941 8.02543 22.2353 8.24118 22.4639C8.45693 22.6925 9.22386 23.3509 9.48174 23.3742C9.76282 23.3855 10.0445 23.3795 10.3245 23.3564C10.3245 23.3564 10.2638 23.8902 10.542 24.0107C10.5552 24.0166 10.5694 24.0212 10.5841 24.0244C10.9111 24.1065 9.81717 24.4829 9.78346 24.5555C9.74975 24.628 8.60358 25.1605 8.43502 25.3617C8.26647 25.5629 7.28548 26.2501 7.28548 26.2501C7.28548 26.2501 6.61126 26.5061 6.45114 26.6703C6.29593 26.8503 6.15246 27.0367 6.02132 27.2288C6.02132 27.2288 4.78076 28.109 4.61221 28.4608C4.61221 28.4608 2.10918 30.6509 1.95074 30.8316C1.79229 31.0123 1.47036 31.5968 1.63891 31.991C1.80746 32.3853 2.19177 33.9403 2.19177 33.9403C2.19206 34.1893 2.22197 34.4378 2.2811 34.6822C2.37044 34.9751 2.44966 35.6075 2.50696 35.9456C2.65345 36.4994 2.86861 37.0396 3.14916 37.5581C3.38682 37.9784 4.71671 40.2685 4.93078 40.6339C5.14484 40.9994 5.7095 41.3759 5.74321 41.4771C5.77692 41.5784 5.78703 42.5572 5.78703 42.5572C5.53506 42.628 5.27462 42.6771 5.01 42.7036C4.77233 42.7036 4.44534 42.7858 4.47905 42.8597C4.51276 42.9336 4.76222 42.9788 4.71671 43.1704C4.6712 43.3621 3.64134 44.3613 3.07668 44.6542ZM22.3222 19.0349C22.5388 18.1366 22.6857 17.2282 22.7621 16.315C22.7856 15.9684 22.8306 15.6231 22.897 15.2802C22.897 15.2802 23.642 15.0064 24.0027 15.0789C24.3634 15.1515 25.9192 15.9003 25.9192 15.9003L26.3372 15.7907C26.3372 15.7907 27.5541 16.6121 27.5322 16.7421C27.5103 16.8721 26.585 18.2711 26.1568 18.7844C25.7287 19.2977 24.092 20.7254 23.9454 20.9184C23.8519 21.0435 23.7165 21.1442 23.555 21.209C23.3935 21.2737 23.2126 21.2997 23.0335 21.2839C22.6155 21.2292 21.771 20.9184 21.7592 20.7254C21.7474 20.5324 22.1082 19.8124 22.3222 19.0349ZM9.84076 21.5796C9.61659 21.5426 8.59009 20.4079 8.19567 19.9781C7.79486 19.4985 7.46556 18.982 7.21469 18.4395C7.08996 18.137 6.2455 16.8188 6.12077 16.6257C5.99604 16.4327 7.42875 15.5827 7.42875 15.5827C7.65153 15.5988 7.87604 15.5873 8.09454 15.5485C8.33052 15.4841 9.27442 14.953 9.34521 14.9352L10.3936 14.7148L10.8453 15.2282C10.7998 15.3967 10.7919 15.5706 10.8218 15.7415C10.8791 15.9797 11.3274 17.4895 11.3746 17.9015C11.4218 18.3135 11.5331 20.8404 11.5331 20.8404C11.436 21.0333 11.2792 21.2026 11.078 21.3318C10.8892 21.4427 10.0666 21.6166 9.84076 21.5796Z" fill="#373759"/>
</g>
<defs>
<clipPath id="clip0">
<rect width="30.0229" height="51.9627" fill="white" transform="translate(0.630371 0.0831299)"/>
</clipPath>
</defs>
</svg>
