<svg 
          width="46.5" 
          height="74.17204284667969" fill="none" 
          xmlns="http://www.w3.org/2000/svg">
          <path d="M 1.2612385779300184 1.1255096353078253 C -0.41580956493514765 2.6159992382219723 -0.42733286511682245 5.032342419528538 1.272758644560057 6.522832022442685 L 26.410967332949394 28.610512007467516 L 26.854780609895855 28.950779107619848 C 28.55409714503054 30.084686028179586 30.982950970681404 29.966473179766876 32.52520081464971 28.595215328849335 C 33.361167377705854 27.852566555567613 33.7874167720565 26.875952858502455 33.7874167720565 25.90434387768498 C 33.7874167720565 24.927635543473382 33.36116676179125 23.945826819694528 32.51383349483983 23.203131694934516 L 7.3757282031135345 1.1102571667434524 L 6.931653778377769 0.7699458565373137 C 5.2325438825905195 -0.36396106402242434 2.8037983809194693 -0.24542368618346888 1.2612385779300184 1.1255096353078253 Z M 0.8827787670860008 68.04507317230647 C -0.41441605815849747 69.54103294044107 -0.27662041087331657 71.68553527053581 1.2606694728420076 73.05169376805922 C 2.9434527044809977 74.54209066801678 5.680856723628392 74.54718366621567 7.375161561683914 73.05678676625811 L 45.226416722783334 39.787792863271 L 45.61494550546588 39.39792650374948 C 46.203945443361164 38.719251198051104 46.5 37.90474810062519 46.5 37.086536470466726 C 46.5 36.11488113817096 46.07374567833258 35.1381258998554 45.23777911527643 34.39547712657368 C 43.55499588363744 32.89998087322199 40.81769787879013 32.89488538820758 39.123548097234504 34.38528228816514 L 1.2721920031304357 67.65427398064956 L 0.8827787670860008 68.04507317230647 Z" fill="rgb(61.00520968437195,138.1250050663948,65.75104102492332)"/>
        </svg>