<svg 
          width="40.6630859375" 
          height="43.669921875" fill="none" 
          xmlns="http://www.w3.org/2000/svg">
          <path d="M 21.358916225918282 0.03684846326170377 C 23.911255882661514 0 26.448966524027654 0.02183612684805772 28.9837543264812 0 C 29.13733349831988 2.7854706477745945 30.210925409921742 5.6228027281973825 32.39613763321919 7.592148268801707 C 34.576962023716106 9.610625110702035 37.66170996147578 10.534565880492703 40.6630859375 10.847095434089624 L 40.6630859375 18.174480995008626 C 37.850393048949314 18.088501248245336 35.02453561582191 17.542597616931104 32.47219595907868 16.412578093852584 C 31.360575265965085 15.943101372974493 30.325013857704832 15.338513980261931 29.3113912647222 14.72027865587632 C 29.298227335863135 20.037375165882523 29.334794365540024 25.347646428854155 29.274825352055203 30.642907094180917 C 29.12270883110811 33.18681570039062 28.223171590973852 35.71844302684856 26.637649437138666 37.814711122916194 C 24.086772507570625 41.304396872344405 19.65930675765638 43.579447065231186 15.111900517901908 43.65041447558083 C 12.322610217979143 43.79917307908835 9.53624467495668 43.089499707705095 7.159424084197835 41.782061668920704 C 3.220483753869208 39.614826101493996 0.44874518291306514 35.647475230105854 0.04505135730335802 31.389430853165006 C -0.005798229424588193 30.487641916232004 -0.013606850524537448 29.584189130104146 0.021648768675434877 28.681752273016794 C 0.3726868788488895 25.219361654821515 2.208324323968063 21.90709328225647 5.057583648273306 19.653878018907665 C 8.287134253150963 17.02944867794573 12.811138253002554 15.779330544903951 17.046998076530674 16.519029300891194 C 17.086489865832277 19.214426113212205 16.97093975067118 21.907093770331915 16.97093975067118 24.602490582652926 C 15.035842192042418 24.018374212981435 12.77457077107288 24.18214373951745 11.083737142774561 25.278044267208898 C 9.84668319173481 26.038435469797804 8.911836538838932 27.157191106391412 8.423161080305375 28.462024611905004 C 8.019467254695668 29.384600926113883 8.135017647747027 30.409534714559424 8.158420190059905 31.389430853165006 C 8.622083040052091 34.375521008346915 11.699517559888957 36.88530956167275 14.98464935634856 36.613722745598174 C 17.1625482924951 36.59188661875012 19.249761631030246 35.41273778480827 20.384784912771767 33.686319107407215 C 20.75191225903629 33.081731389311024 21.162920702673322 32.46349634963609 21.184860584559164 31.752457465174242 C 21.376468886634616 28.497509974502695 21.300409626300997 25.25620939868035 21.323812168613877 22.001261908008804 C 21.3399014156026 14.66568839341046 21.300409067796053 7.350585581553672 21.360378081280874 0.0382132213485861 L 21.358916225918282 0.03684846326170377 Z" fill="rgb(55.00000052154064,55.00000052154064,89.00000229477882)"/>
        </svg>